<svg width="235" height="79" viewBox="0 0 235 79" fill="none" xmlns="http://www.w3.org/2000/svg">
<g clip-path="url(#clip0_29_629)">
<rect width="235" height="72" fill="#2C3E50"/>
<path d="M117.48 42.768C117.288 42.064 116.776 39.776 115.944 35.904C115.112 32.032 114.264 28.944 113.4 26.64C112.536 24.336 111.512 22.8 110.328 22.032C110.008 21.872 109.848 21.664 109.848 21.408C109.848 20.8 110.712 20.304 112.44 19.92C114.168 19.536 115.496 19.344 116.424 19.344C117.384 19.344 117.96 19.616 118.152 20.16C118.728 21.344 119.464 24 120.36 28.128C122.184 36.768 123.528 42.208 124.392 44.448C124.584 44.896 124.824 45.12 125.112 45.12C125.4 45.12 125.688 44.848 125.976 44.304C126.296 43.728 126.712 42.928 127.224 41.904C127.768 40.848 128.488 38.992 129.384 36.336C130.28 33.68 130.728 31.376 130.728 29.424C130.728 26.416 129.736 24.288 127.752 23.04C127.592 22.848 127.512 22.64 127.512 22.416C127.512 21.744 128.44 21.072 130.296 20.4C132.152 19.728 133.832 19.392 135.336 19.392C136.328 19.392 136.824 19.856 136.824 20.784C136.824 23.664 136.248 27.008 135.096 30.816C133.944 34.592 132.568 38.112 130.968 41.376C129.368 44.608 127.88 47.408 126.504 49.776C124.328 53.456 122.952 55.296 122.376 55.296C122.088 55.296 121.816 55.072 121.56 54.624C120.6 53.248 119.448 50.096 118.104 45.168L117.48 42.768ZM142.415 28.32L141.263 28.272C140.399 28.272 139.839 28.48 139.583 28.896C139.519 28.992 139.439 29.04 139.343 29.04C138.927 29.04 138.719 28.336 138.719 26.928C138.719 25.488 138.927 24.576 139.343 24.192C139.791 23.808 140.543 23.616 141.599 23.616C142.687 23.616 143.423 23.808 143.807 24.192C144.191 24.544 144.383 25.152 144.383 26.016C144.383 26.88 144.239 27.488 143.951 27.84C143.663 28.16 143.151 28.32 142.415 28.32ZM138.575 52.56L139.103 41.376C139.103 38.72 138.799 36.912 138.191 35.952C137.999 35.632 137.775 35.392 137.519 35.232C137.327 35.168 137.231 35.04 137.231 34.848C137.231 34.272 138.047 33.712 139.679 33.168C141.311 32.624 142.495 32.352 143.231 32.352C143.999 32.352 144.399 32.544 144.431 32.928C144.431 33.568 144.335 35.392 144.143 38.4C143.983 41.376 143.903 44.512 143.903 47.808C143.903 51.104 144.095 53.152 144.479 53.952C144.575 54.112 144.623 54.272 144.623 54.432C144.623 54.848 144.015 55.056 142.799 55.056C141.583 55.056 140.335 54.736 139.055 54.096C138.735 53.936 138.575 53.424 138.575 52.56ZM157.245 37.44L156.141 37.728C155.565 37.728 155.277 37.2 155.277 36.144C155.277 35.056 155.661 34.192 156.429 33.552C157.229 32.88 158.237 32.544 159.453 32.544C160.125 32.544 160.845 32.752 161.613 33.168C162.381 33.552 163.021 34.048 163.533 34.656C164.045 35.232 164.493 36.16 164.877 37.44C165.293 38.688 165.501 40.16 165.501 41.856C165.501 45.76 164.445 48.928 162.333 51.36C160.253 53.792 157.229 55.008 153.261 55.008C152.109 55.008 150.973 54.896 149.853 54.672L149.373 54.576C148.957 54.448 148.717 54.224 148.653 53.904C148.557 53.232 148.509 51.648 148.509 49.152L148.797 33.6C148.797 31.2 148.733 29.36 148.605 28.08L148.509 27.408C148.445 26.512 148.253 25.744 147.933 25.104C147.645 24.464 147.357 24.048 147.069 23.856L146.685 23.616C146.461 23.488 146.349 23.344 146.349 23.184C146.349 22.704 147.149 22.144 148.749 21.504C150.349 20.832 151.517 20.496 152.253 20.496C152.989 20.496 153.373 20.688 153.405 21.072C153.629 23.024 153.741 25.808 153.741 29.424L153.501 40.944C153.501 45.968 153.645 49.44 153.933 51.36C153.965 51.808 154.461 52.032 155.421 52.032C156.413 52.032 157.261 51.76 157.965 51.216C158.669 50.672 159.197 49.952 159.549 49.056C160.189 47.424 160.509 45.616 160.509 43.632C160.509 42.704 160.381 41.696 160.125 40.608C159.677 38.496 158.717 37.44 157.245 37.44ZM176.417 37.44L175.313 37.728C174.737 37.728 174.449 37.2 174.449 36.144C174.449 35.056 174.833 34.192 175.601 33.552C176.401 32.88 177.409 32.544 178.625 32.544C179.297 32.544 180.017 32.752 180.785 33.168C181.553 33.552 182.193 34.048 182.705 34.656C183.217 35.232 183.665 36.16 184.049 37.44C184.465 38.688 184.673 40.16 184.673 41.856C184.673 45.76 183.617 48.928 181.505 51.36C179.425 53.792 176.401 55.008 172.433 55.008C171.281 55.008 170.145 54.896 169.025 54.672L168.545 54.576C168.129 54.448 167.889 54.224 167.825 53.904C167.729 53.232 167.681 51.648 167.681 49.152L167.969 33.6C167.969 31.2 167.905 29.36 167.777 28.08L167.681 27.408C167.617 26.512 167.425 25.744 167.105 25.104C166.817 24.464 166.529 24.048 166.241 23.856L165.857 23.616C165.633 23.488 165.521 23.344 165.521 23.184C165.521 22.704 166.321 22.144 167.921 21.504C169.521 20.832 170.689 20.496 171.425 20.496C172.161 20.496 172.545 20.688 172.577 21.072C172.801 23.024 172.913 25.808 172.913 29.424L172.673 40.944C172.673 45.968 172.817 49.44 173.105 51.36C173.137 51.808 173.633 52.032 174.593 52.032C175.585 52.032 176.433 51.76 177.137 51.216C177.841 50.672 178.369 49.952 178.721 49.056C179.361 47.424 179.681 45.616 179.681 43.632C179.681 42.704 179.553 41.696 179.297 40.608C178.849 38.496 177.889 37.44 176.417 37.44ZM197.535 32.88L202.767 32.736C203.183 32.736 203.391 32.912 203.391 33.264C203.391 33.904 202.383 35.792 200.367 38.928C198.351 42.064 196.591 44.8 195.087 47.136C193.615 49.472 192.879 50.88 192.879 51.36C192.879 51.68 193.327 51.84 194.223 51.84C195.119 51.84 195.903 51.712 196.575 51.456C197.247 51.168 197.743 50.8 198.063 50.352C198.607 49.584 198.879 48.88 198.879 48.24C198.879 47.6 198.815 46.976 198.687 46.368C198.687 45.984 199.039 45.76 199.743 45.696C201.407 45.696 202.511 46.16 203.055 47.088C203.471 47.824 203.679 48.576 203.679 49.344C203.679 51.072 202.975 52.368 201.567 53.232C200.159 54.096 198.495 54.528 196.575 54.528L191.103 54.384L186.255 54.48C185.679 54.48 185.391 54.288 185.391 53.904C185.391 53.488 185.903 52.432 186.927 50.736C187.983 49.04 189.039 47.44 190.095 45.936L191.679 43.68C194.367 39.456 195.791 37.184 195.951 36.864C196.143 36.512 196.239 36.208 196.239 35.952C196.239 35.504 195.775 35.28 194.847 35.28C193.919 35.28 193.071 35.408 192.303 35.664C191.567 35.92 190.959 36.24 190.479 36.624C189.999 36.976 189.583 37.344 189.231 37.728C188.591 38.432 188.271 38.88 188.271 39.072C188.175 39.392 187.999 39.552 187.743 39.552H187.695C187.247 39.552 187.023 39.28 187.023 38.736C187.023 37.488 187.311 36.016 187.887 34.32L188.223 33.456C188.351 33.008 188.687 32.784 189.231 32.784L197.535 32.88Z" fill="white"/>
</g>
<path d="M47.48 42.768C47.288 42.064 46.776 39.776 45.944 35.904C45.112 32.032 44.264 28.944 43.4 26.64C42.536 24.336 41.512 22.8 40.328 22.032C40.008 21.872 39.848 21.664 39.848 21.408C39.848 20.8 40.712 20.304 42.44 19.92C44.168 19.536 45.496 19.344 46.424 19.344C47.384 19.344 47.96 19.616 48.152 20.16C48.728 21.344 49.464 24 50.36 28.128C52.184 36.768 53.528 42.208 54.392 44.448C54.584 44.896 54.824 45.12 55.112 45.12C55.4 45.12 55.688 44.848 55.976 44.304C56.296 43.728 56.712 42.928 57.224 41.904C57.768 40.848 58.488 38.992 59.384 36.336C60.28 33.68 60.728 31.376 60.728 29.424C60.728 26.416 59.736 24.288 57.752 23.04C57.592 22.848 57.512 22.64 57.512 22.416C57.512 21.744 58.44 21.072 60.296 20.4C62.152 19.728 63.832 19.392 65.336 19.392C66.328 19.392 66.824 19.856 66.824 20.784C66.824 23.664 66.248 27.008 65.096 30.816C63.944 34.592 62.568 38.112 60.968 41.376C59.368 44.608 57.88 47.408 56.504 49.776C54.328 53.456 52.952 55.296 52.376 55.296C52.088 55.296 51.816 55.072 51.56 54.624C50.6 53.248 49.448 50.096 48.104 45.168L47.48 42.768Z" fill="white"/>
<path d="M75.7247 56.9254C58.2123 65.1086 34.3853 62.5389 22.5079 51.1882C10.6305 39.8374 15.1966 24.0002 32.709 15.817C50.2214 7.63378 74.0484 10.2034 85.9258 21.5542C93.4485 28.7433 94.3778 37.7316 89.5971 45.4311L102.945 55.0074L80.0369 54.6007C78.7022 55.4308 77.2648 56.2057 75.7247 56.9254Z" stroke="white" stroke-width="5" stroke-linejoin="round"/>
<defs>
<clipPath id="clip0_29_629">
<rect width="235" height="72" fill="white"/>
</clipPath>
</defs>
</svg>
